<svg viewBox="0 0 170 170" fill="none" xmlns="http://www.w3.org/2000/svg">
  <path d="M20 4h130v130l-65 30-65-30V4Z" fill="#fff" stroke="#fff" stroke-width="8"/>
  <path d="M20 14h130V4H20v10Zm0 120 65 30v-13l-55-25-10 8Zm130 0-65 30v-13l55-25 10 8Z" fill="#8D0022"/>
  <path d="M20 134h10V4H20v130Zm120 0h10V4h-10v130Z" fill="#8D0022"/>
  <path fill-rule="evenodd" clip-rule="evenodd" d="m140 126-55 25V14h55v112Zm-13-81-8-8 8-8-7-7-8 8-8-8-7 7 8 8-8 8 7 7 8-8 8 8 7-7Zm-8 29 8 8-7 7-8-8-8 8-7-7 8-8-8-8 7-7 8 8 8-8 7 7-8 8Zm8 45-8-8 8-8-7-7-8 8-8-8-7 7 8 8-8 8 7 7 8-8 8 8 7-7Z" fill="#000"/>
  <path d="m81 144-8-3 .5-21.5c0-6-20-19-20-19 0-.7 5 1 10.3 4 .5.5-.7-6.3-.3-6 .6.5 2.6 5.7 3.6 6.5l8 7.7c.4-14.9.4-51.2.4-51.2l-11.7-22 13.2 14 4-7.5v98ZM70 40c7.8-4.7 15-8.3 8.4-25C65 28.3 65 31.7 70 40Zm-8-3c-6.7-10.5-9.3-17-24-17 1.3 14.4 8.7 17 24 17Zm.2 6.7c-5.9-5.2-21.2-2.3-28.2-.2 5.3 4.8 18.4 11.6 28.2.2Z" fill="#005641"/>
  <path d="M66 94.8c9.7-11 10.5-18.9-6-34.4-5.2 22.5-6.4 29.7 6 34.4Z" fill="#005641"/>
  <path d="M59.8 103c-.5-11-6.2-19-25.8-22.8 2.5 16.6 7.3 23.8 25.8 23Zm8.7 15.6c-8.7-10-28-7-36.4-4 7.5 5.6 25.4 14.3 36.4 4Z" fill="#005641"/>
</svg>