<?xml version="1.0" standalone="no"?>
<!DOCTYPE svg PUBLIC "-//W3C//DTD SVG 20010904//EN"
 "http://www.w3.org/TR/2001/REC-SVG-20010904/DTD/svg10.dtd">
<svg version="1.0" xmlns="http://www.w3.org/2000/svg"
 width="700.000000pt" height="700.000000pt" viewBox="0 0 700.000000 700.000000"
 preserveAspectRatio="xMidYMid meet">
<metadata>
Created by potrace 1.14, written by Peter Selinger 2001-2017
</metadata>
<g transform="translate(0.000000,700.000000) scale(0.100000,-0.100000)"
fill="#000000" stroke="none">
<path d="M658 6993 c-9 -18 -1 -5674 8 -5682 5 -5 81 -41 169 -81 88 -40 211
-97 274 -126 62 -30 114 -54 116 -54 2 0 50 -22 107 -49 56 -27 213 -99 348
-161 135 -62 291 -134 348 -161 57 -27 105 -49 106 -49 2 0 48 -21 102 -46
112 -52 171 -79 264 -122 36 -16 218 -101 405 -187 187 -87 369 -171 405 -187
36 -17 93 -43 128 -59 l63 -29 47 21 c26 12 81 37 122 56 41 20 98 46 125 59
28 12 103 48 169 78 65 31 119 56 121 56 5 0 145 65 408 189 60 28 110 51 112
51 2 0 42 18 89 40 123 57 360 167 431 200 137 63 190 87 639 294 257 119 493
229 524 244 l56 27 0 2840 1 2840 -2842 3 c-1563 1 -2843 -1 -2845 -5z m2840
-3426 c1 -1649 1 -2997 -1 -2997 -2 0 -31 14 -65 30 -34 17 -64 30 -66 30 -2
0 -52 22 -110 50 -58 27 -108 50 -110 50 -2 0 -46 20 -97 44 -52 23 -139 64
-194 89 -55 25 -140 64 -188 86 -49 23 -90 41 -92 41 -2 0 -41 17 -87 39 -45
21 -175 80 -288 131 -113 51 -232 105 -265 120 -33 15 -112 51 -175 80 -63 29
-153 70 -198 91 -46 22 -86 39 -88 39 -2 0 -47 21 -101 46 -54 25 -123 56
-153 69 -30 13 -71 32 -91 42 l-35 18 0 2445 c0 1979 2 2446 12 2450 7 3 548
5 1201 4 l1188 -1 3 -2996z m1192 2461 c86 -87 162 -158 168 -158 6 0 17 8 24
18 8 9 84 86 170 171 l155 153 153 -152 152 -153 -139 -140 c-76 -77 -153
-153 -170 -169 -18 -17 -33 -35 -33 -40 0 -5 77 -86 171 -180 l171 -171 -153
-153 -154 -154 -175 175 -175 175 -175 -175 -175 -175 -152 152 -153 153 175
175 175 175 -175 175 -175 175 152 152 c127 128 154 150 167 140 8 -7 86 -83
171 -169z m9 -1760 l156 -156 176 175 176 175 152 -153 152 -152 -170 -171
c-94 -94 -171 -175 -171 -179 0 -5 77 -85 171 -179 l171 -171 -153 -153 -154
-154 -175 175 -175 175 -175 -175 -175 -175 -153 152 -152 153 175 175 175
175 -170 170 c-93 94 -170 174 -170 180 0 5 66 76 147 157 142 143 148 147
167 130 10 -9 89 -87 175 -174z m-10 -1738 l166 -168 176 174 176 175 152
-152 153 -152 -171 -171 c-94 -94 -171 -175 -171 -179 0 -5 77 -85 171 -179
94 -93 169 -172 167 -173 -2 -2 -70 -72 -152 -155 l-150 -151 -176 176 -175
175 -175 -175 -175 -175 -152 152 -153 153 175 175 175 175 -175 175 -175 175
152 152 c83 83 156 149 161 146 5 -3 84 -81 176 -173z"/>
<path d="M3123 6428 c-344 -350 -448 -546 -396 -745 14 -55 79 -197 108 -236
16 -23 18 -22 170 78 231 152 319 293 318 510 0 82 -5 119 -24 202 -6 27 -12
55 -14 64 -8 37 -69 209 -75 209 -3 0 -43 -37 -87 -82z"/>
<path d="M1446 6278 c2 -12 8 -56 15 -95 6 -40 11 -76 11 -80 1 -27 66 -187
94 -235 44 -71 139 -160 213 -198 125 -63 263 -93 481 -106 171 -11 225 -10
223 4 -3 14 -151 247 -211 332 -195 274 -384 377 -728 396 l-102 6 4 -24z"/>
<path d="M2580 5434 c0 -2 11 -23 24 -46 13 -24 44 -81 68 -128 25 -47 61
-114 80 -150 47 -89 134 -251 243 -457 l91 -171 -2 -510 c-2 -679 -15 -1662
-23 -1716 0 -5 -25 15 -54 45 -30 30 -110 107 -180 173 -126 119 -126 119
-193 252 -37 73 -71 131 -76 128 -5 -3 -6 -9 -4 -13 3 -4 8 -36 11 -72 3 -35
8 -85 10 -111 3 -29 2 -48 -4 -48 -6 0 -47 19 -91 42 -86 46 -85 44 -95 137
-3 29 -7 56 -9 60 -2 3 -7 23 -10 43 -9 58 -53 167 -98 242 -88 149 -270 296
-473 381 -22 10 -53 23 -70 30 -68 29 -302 96 -385 110 -19 3 -43 8 -53 11
-21 7 -21 9 8 -146 63 -334 160 -543 312 -670 52 -43 178 -117 212 -124 9 -2
23 -5 31 -8 29 -11 96 -26 140 -33 25 -4 53 -9 64 -11 10 -2 70 -6 134 -10 70
-4 121 -11 131 -19 9 -7 70 -54 136 -103 66 -50 129 -99 140 -109 12 -10 50
-43 85 -73 86 -73 194 -183 242 -247 62 -82 76 -130 73 -253 -2 -58 -6 -244
-10 -415 -4 -170 -8 -336 -9 -368 0 -32 1 -62 4 -66 8 -12 332 -132 339 -125
9 9 7 4264 -1 4264 -5 0 -8 -4 -8 -9 0 -8 -146 -287 -157 -301 -3 -3 -27 20
-55 50 -28 30 -117 124 -197 209 -80 85 -157 167 -171 181 -87 93 -150 158
-150 154z"/>
<path d="M1775 5375 c-193 -26 -172 -22 -340 -60 -141 -32 -161 -40 -144 -61
45 -54 272 -183 384 -219 255 -80 486 -49 675 89 69 50 152 135 144 147 -16
26 -148 81 -229 95 -16 3 -47 9 -69 14 -55 12 -315 9 -421 -5z"/>
<path d="M2380 4428 c-13 -57 -25 -107 -26 -113 -1 -5 -11 -53 -22 -105 -12
-52 -24 -111 -27 -130 -3 -19 -10 -54 -15 -77 -5 -22 -13 -65 -16 -95 -3 -29
-8 -56 -10 -59 -8 -14 -18 -153 -18 -249 0 -261 80 -399 299 -513 28 -14 68
-33 89 -42 l39 -15 31 36 c119 142 233 332 250 419 4 17 9 41 12 55 6 32 7
158 0 189 -30 140 -113 307 -215 434 -66 82 -239 268 -317 340 l-31 28 -23
-103z"/>
<path d="M1818 2285 c-2 -2 -43 -6 -92 -10 -50 -3 -92 -8 -95 -10 -4 -1 -28
-6 -56 -9 -132 -18 -388 -83 -379 -97 7 -12 142 -100 209 -137 159 -86 342
-163 459 -193 23 -6 58 -14 78 -20 155 -39 359 -40 498 -3 30 8 61 16 67 18
35 7 184 91 223 126 l45 40 -61 58 c-77 72 -183 132 -299 171 -91 30 -110 35
-194 47 -25 4 -55 9 -66 11 -23 5 -332 12 -337 8z"/>
</g>
</svg>
