<?xml version="1.0" encoding="UTF-8"?>
<svg width="152px" height="12px" viewBox="0 0 152 12" version="1.1" xmlns="http://www.w3.org/2000/svg" xmlns:xlink="http://www.w3.org/1999/xlink">
    <!-- Generator: Sketch 51.1 (57501) - http://www.bohemiancoding.com/sketch -->
    <title>Artboard</title>
    <desc>Created with Sketch.</desc>
    <defs></defs>
    <g id="Artboard" stroke="none" stroke-width="1" fill="none" fill-rule="evenodd">
        <path d="M76,11 C72.1340068,11 69,8.76142375 69,6 C69,3.23857625 72.1340068,1 76,1 C79.8659932,1 83,3.23857625 83,6 C83,8.76142375 79.8659932,11 76,11 Z M76,9 C78.7614237,9 81,7.65685425 81,6 C81,4.34314575 78.7614237,3 76,3 C73.2385763,3 71,4.34314575 71,6 C71,7.65685425 73.2385763,9 76,9 Z" id="Combined-Shape" fill="#0B0404"></path>
        <path d="M3.32382311,7 L-10,12 C-8.46623094,9.99598868 -7.69934641,7.99456112 -7.69934641,5.99571734 C-7.69934641,3.99687356 -8.46623094,1.99830112 -10,0 L3.34285714,5 L57,5 L57,7 L3.32382311,7 Z" id="Combined-Shape" fill="#0B0404" transform="translate(28.500000, 6.000000) scale(-1, 1) translate(-28.500000, -6.000000) "></path>
        <path d="M98.3238231,7 L85,12 C86.5337691,9.99598868 87.3006536,7.99456112 87.3006536,5.99571734 C87.3006536,3.99687356 86.5337691,1.99830112 85,0 L98.3428571,5 L152,5 L152,7 L98.3238231,7 Z" id="Combined-Shape" fill="#0B0404"></path>
    </g>
</svg>