<svg viewBox="0 0 700 700" fill="none" xmlns="http://www.w3.org/2000/svg">
  <path fill="#fff" d="M0 0h700v700H0z"/>
  <path d="M117 500a22 22 0 0 0 4.7-.3c1-.3 1.6-.8 2-1.5.2-.6.4-1.7.4-3.2v-43.2a8 8 0 0 0-.5-3.3c-.3-.8-1-1.2-1.9-1.5a18 18 0 0 0-4.7-.4v-3h25v3a18 18 0 0 0-4.7.4c-1 .3-1.6.7-1.9 1.5a12 12 0 0 0-.3 3.3V495c0 1.5.1 2.6.4 3.3.3.7 1 1.1 1.9 1.4 1 .2 2.5.3 4.7.3v3H117v-3Zm29.9 0 24.7-35.8h-7.2c-2.9 0-5.1.3-6.7 1a7.4 7.4 0 0 0-3.6 3.2 23 23 0 0 0-2.1 5.9h-2.4l1-13.6h33v3.2l-24.8 35.6h10c3.1 0 5.6-.3 7.3-1 1.7-.7 3-1.7 4-3.2a23 23 0 0 0 2.5-6.7h2.3l-1 14.4h-37v-3Zm87.5 0v3h-19.2v-3h.8c.6 0 1 0 1.3-.2.3-.2.5-.5.5-.8a54.4 54.4 0 0 0-1.8-3l-9.2-12.7-3 3.5v8.7c0 1.3.2 2.3.4 3 .3.5.9 1 1.7 1.2.8.2 2 .3 3.7.3v3h-22v-3c1.8 0 3 0 3.9-.3.8-.3 1.3-.8 1.6-1.4a8 8 0 0 0 .3-2.8v-45.2c0-1.7-.1-2.8-.5-3.4-.4-.6-1-.9-2-.9H188v-3l13.3-2.1h2.5v41.5l9.2-12.2c1.8-2.4 2.7-4.1 2.7-5.2 0-.9-.6-1.3-1.7-1.3h-2v-3h20v3h-1c-2.6 0-5 .6-7.1 1.8a25 25 0 0 0-6.6 5.6l-4.1 4.9 12.1 16.6c2 2.9 3.6 4.8 4.8 5.9 1.2 1 2.3 1.5 3.5 1.5h.9Zm43.6-4.5a8 8 0 0 0 .4 3c.3.5.8 1 1.6 1.2.9.2 2.1.3 3.8.3v3h-16v-6.2c-5.6 4.8-10.9 7.2-15.8 7.2-3.8 0-6.8-1-8.8-3.3-2-2.1-3-5.3-3-9.4V469c0-1.7-.1-2.8-.5-3.4-.4-.5-1-.8-2.2-.8h-2.7v-3l13.2-1.6h2.6v28.5c0 3 .6 5.3 2 7a7.3 7.3 0 0 0 5.8 2.4c1.6 0 3.2-.4 4.8-1.4 1.7-1 3.1-2.2 4.4-3.5V469c0-1.7-.2-2.8-.6-3.4-.3-.5-1-.8-2-.8h-2.7v-3l13.1-1.6h2.6v35.3Zm27.7 8.5c-1.6 0-3-.2-4-.5l-3.7-1a9 9 0 0 0-3.5-1c-.7 0-1.2.2-1.7.5-.3.3-.7.7-1 1.3H290l-.8-14.9h2.3c1.1 3.6 3 6.5 5.4 8.8 2.5 2.2 5.3 3.3 8.3 3.3a7 7 0 0 0 5-1.7 6.4 6.4 0 0 0 1.8-4.8c0-1.3-.3-2.3-.8-3a7.4 7.4 0 0 0-2.4-2.3c-1.1-.7-2.9-1.6-5.3-2.8l-1.8-.9c-4.2-2-7-4-8.7-5.7a10.2 10.2 0 0 1-2.3-6.9c0-4 1.3-7.1 4-9.3 2.6-2.2 6.2-3.3 10.7-3.3 2.5 0 4.8.4 7 1.2l2.8.5c.6 0 1-.1 1.3-.4l.5-.7.1-.5h2l.6 13.2h-2.2c-.7-2.9-2.1-5.2-4.2-7-2-1.8-4.4-2.7-7-2.7-2 0-3.5.5-4.7 1.4a4.3 4.3 0 0 0-1.8 3.6c0 2.7 2 5 6 6.8l2.9 1.3a54 54 0 0 1 7 3.6c1.6 1.2 3 2.6 4 4.3 1 1.6 1.6 3.6 1.6 6 0 4-1.5 7.4-4.3 9.9a16.5 16.5 0 0 1-11.3 3.7Zm34 0c-3.2 0-5.8-1-7.7-2.7a10.6 10.6 0 0 1-2.8-7.8v-29.2H324v-3c3.1-1 5.6-2.6 7.5-5 1.9-2.3 3.3-5.6 4.4-9.7h3.8v14.1h9.6v3.6h-9.6v26c0 2.7.5 4.7 1.5 6 1 1.4 2.6 2 4.8 2 1.6 0 3.1-.3 4.5-.9l1 2.3a43.3 43.3 0 0 1-5.8 3.2 14 14 0 0 1-5.8 1Zm55.6-2.9a17 17 0 0 1-10 2.8c-2.4 0-4.2-.4-5.3-1.2-1-.8-1.5-2.4-1.5-4.8-2 1.8-4.1 3.2-6.3 4.4-2.2 1-4.6 1.6-7.2 1.6-3.2 0-6-.8-8-2.3a7.8 7.8 0 0 1-3.2-6.7c0-4 2.2-7.6 6.5-10.7a44.9 44.9 0 0 1 18.2-6.8V472c0-2.6-.7-4.5-2-5.7-1.2-1.3-3.3-2-6.4-2-1.7 0-3.1.4-4.4.9-1.2.5-1.8 1-1.8 1.5 0 .6.4 1.2 1.1 2 .5.5.8 1 1 1.4.3.4.4 1 .4 1.7 0 1.5-.4 2.7-1.3 3.6a5 5 0 0 1-3.6 1.2c-1.6 0-2.8-.5-3.8-1.4a5 5 0 0 1-1.4-3.8c0-2 .7-3.8 2.1-5.6 1.5-1.7 3.7-3 6.4-4.1 2.8-1 6.1-1.6 10-1.6 4.7 0 8.2 1 10.4 3 2.3 2 3.5 5.3 3.5 10.2v20c0 2.3.2 4 .7 4.8.5.9 1.4 1.3 2.5 1.3.6 0 1.1 0 1.6-.3l1-.4.8 2.4Zm-31.3-9.4c0 3.8 2.2 5.7 6.7 5.7 2.4 0 5-1 7.8-3.3v-13.2c-5 1.1-8.6 2.5-11 4.3a7.7 7.7 0 0 0-3.5 6.6Zm76.8 3.8c0 1.3.2 2.3.4 3 .3.5.9 1 1.7 1.2.9.2 2.1.3 3.9.3v3h-21.5v-3l3.4-.1a2 2 0 0 0 1.3-1.1c.3-.6.5-1.5.5-2.8v-21.6c0-2.8-.7-5-2-6.5a7.5 7.5 0 0 0-5.7-2.3c-3.3 0-6.5 1.5-9.4 4.3v26c0 1.4.1 2.3.4 2.9.3.5.7.9 1.4 1 .7.2 1.7.2 3.2.2v3h-21.3v-3c1.8 0 3 0 3.9-.3.8-.3 1.3-.7 1.5-1.3a9 9 0 0 0 .4-2.9v-26c0-1.6-.2-2.7-.6-3.2-.3-.6-1-1-2-1h-2.7v-3l13-2h2.5v5.9h.1a26.4 26.4 0 0 1 15.6-6.4c3.8 0 6.7 1.2 8.8 3.5 2.2 2.3 3.2 5.5 3.2 9.7v22.5Zm10 4.5c1.8 0 3 0 3.8-.3.8-.3 1.3-.7 1.6-1.3.2-.6.3-1.5.3-2.9v-31.2h-5.7v-3.6h5.7v-5.5a15 15 0 0 1 4.2-11.3c2.7-2.8 6.4-4.3 11.1-4.3 3.7 0 6.5.8 8.5 2.5 2 1.6 3 3.6 3 6 0 1.4-.4 2.6-1.2 3.4-.8.9-2 1.3-3.5 1.3a5 5 0 0 1-3.5-1.2 4.4 4.4 0 0 1-1.2-3.2c0-1 .2-1.7.5-2.5.5-.7.7-1.2.7-1.5 0-.4-.3-.8-1-1.2-.5-.4-1.2-.6-2-.6-3.4 0-5 2.7-5 8.1v10h10.1v3.6h-10.1v31.2c0 1.4.1 2.4.4 3 .3.6 1 1 1.9 1.3l4.9.2v3h-23.5v-3Zm49.2 4c-7.2 0-12.5-1.8-16-5.3-3.3-3.6-5-9.1-5-16.7 0-7.5 1.8-13.1 5.2-16.7 3.4-3.7 8.7-5.5 16-5.5 7.1 0 12.4 1.8 15.7 5.4 3.4 3.5 5 9.1 5 16.7s-1.6 13.2-5 16.8c-3.4 3.5-8.7 5.3-15.9 5.3Zm0-3.6a8 8 0 0 0 7.6-4.4c1.5-3 2.3-7.5 2.3-13.6 0-6.5-.8-11.3-2.4-14.4a8 8 0 0 0-7.6-4.6 8 8 0 0 0-7.5 4.5c-1.6 3-2.4 7.6-2.4 14 0 6.5.8 11.1 2.4 14a8 8 0 0 0 7.6 4.5Zm53.5-40.6c2.6 0 4.5.8 5.7 2.3a7.8 7.8 0 0 1 1.9 5.3c0 2-.5 3.5-1.5 4.6a5.7 5.7 0 0 1-4.4 1.7c-1.6 0-2.9-.5-3.8-1.3-1-.8-1.4-2-1.4-3.5 0-.9.1-1.6.4-2.2l1-1.5c.5-.5.8-.8.8-1l-.3-.6c-.2-.2-.5-.3-.9-.3-1 0-2.3.7-3.6 2a17.7 17.7 0 0 0-3.4 5.7 18 18 0 0 0-1.4 7.4v17.2c0 1.4.1 2.3.4 3 .4.5 1 1 2 1.2 1 .2 2.7.3 5 .3v3h-23.7v-3c1.8 0 3 0 3.8-.3.8-.3 1.3-.8 1.6-1.4a8 8 0 0 0 .3-2.8v-26c0-1.6-.2-2.7-.5-3.2-.4-.6-1-1-2-1h-2.7v-3l13-2h2.5v7.8h.2c2.6-5.6 6.3-8.4 11-8.4Zm55.1 40.3v3h-15.2l-.5-3.9c-2 1.4-4.1 2.6-6.6 3.5a20 20 0 0 1-7.6 1.4c-5.1 0-9.1-1.9-12-5.6-2.7-3.7-4.2-9-4.2-15.6 0-7.7 1.9-13.5 5.5-17.2a21 21 0 0 1 15.8-5.8 23 23 0 0 1 8.6 1.4h.1v-11a7 7 0 0 0-.5-3.4c-.3-.6-1-.9-2.1-.9h-2.7v-2.8l13-2.2h2.7v54.6c0 1.8.3 3 1 3.6.8.6 2 1 3.7 1h1Zm-35-19.3c0 11.6 3.6 17.4 10.8 17.4a8 8 0 0 0 3.6-.7c1-.5 2.6-1.4 4.5-2.8v-28.9a12.7 12.7 0 0 0-7.6-2.3 9.6 9.6 0 0 0-8.5 4.2 23.8 23.8 0 0 0-2.8 13Zm-343.2 102c-6.4 0-11-1.3-14-3.9-2.8-2.6-4.2-7-4.2-12.9v-23.9c0-1.2-.1-2-.4-2.6-.2-.5-.7-.9-1.4-1-.7-.3-2-.4-3.7-.4v-2.3h19.6v2.3c-1.8 0-3 .1-3.8.4-.7.1-1.2.5-1.4 1-.3.5-.4 1.4-.4 2.6v24c0 4.6.9 8 2.6 10.4a8.7 8.7 0 0 0 7.4 3.5c6.6 0 10-4.6 10-13.8V542c0-1.2-.2-2-.4-2.6a2 2 0 0 0-1.5-1c-.7-.3-2-.4-3.7-.4v-2.3h19.6v2.3c-1.8 0-3 .1-3.8.3-.7.2-1.2.6-1.5 1.1a8 8 0 0 0-.3 2.6v24c0 5.8-1.5 10-4.5 12.8-3 2.6-7.7 4-14.2 4Zm57.5-6.6c0 1 0 1.7.3 2.2.2.5.6.8 1.3 1 .6.2 1.6.3 3 .3v2.3h-16.7v-2.3c1.2 0 2.1 0 2.6-.2a1 1 0 0 0 1-.8c.3-.4.4-1.1.4-2.2v-16.8c0-2.2-.5-3.8-1.6-5-1-1.2-2.5-1.8-4.4-1.8-2.6 0-5 1.1-7.3 3.3v20.3c0 1 .1 1.8.3 2.2.2.4.6.7 1.1.8l2.5.2v2.3H254v-2.3c1.4 0 2.4-.1 3-.3.6-.2 1-.5 1.2-1l.2-2.2V556c0-1.3-.1-2.1-.4-2.6-.3-.4-.8-.7-1.5-.7h-2.1v-2.3l10-1.6h2v4.6a20.5 20.5 0 0 1 12.2-5c3 0 5.2 1 6.9 2.7a11 11 0 0 1 2.5 7.6v17.5Zm15.7-32.1a4.4 4.4 0 0 1-4.6-4.6c0-1.3.4-2.4 1.3-3.3.8-.9 2-1.3 3.3-1.3a4.4 4.4 0 0 1 4.6 4.6c0 1.3-.5 2.4-1.3 3.3a5 5 0 0 1-3.3 1.3Zm-8.4 35.6c1.4 0 2.4-.1 3-.3.7-.2 1-.6 1.2-1a6 6 0 0 0 .3-2.2V556c0-1.3-.1-2.2-.4-2.6-.2-.4-.7-.7-1.5-.7h-2.1v-2.3l10.3-1.6h2v27.4c0 1 0 1.8.2 2.2.2.5.6.8 1.2 1 .6.2 1.6.3 3 .3v2.3h-17.2v-2.3Zm22.5-25.7c-.4-1-1-1.7-1.6-2-.5-.4-1.5-.6-3-.6v-2.3h16.1v2.3h-2.4c-.9 0-1.3.4-1.3 1l.1.9 8 21h.2l7.3-20.9.2-.9c0-.7-.5-1-1.4-1H337V549h13v2.3c-1.5 0-2.5.2-3 .6-.7.5-1.2 1.2-1.6 2.3L333.9 582h-5.2l-11-28Zm61.5 12h-21c.2 4 1 7 2.3 9.1 1.4 2.1 3.8 3.2 7.1 3.2a10 10 0 0 0 5.7-1.5c1.5-1.1 2.7-2.7 3.6-4.8l2.1 1.3a17 17 0 0 1-4.9 6.8c-2 1.7-5.2 2.6-9.4 2.6-10 0-15-5.7-15-17 0-5.8 1.2-10 3.7-13 2.6-2.9 6.3-4.3 11.2-4.3 5.1 0 8.8 1.5 11.1 4.5 2.4 3 3.5 7 3.5 12.2v.9Zm-8.5-2.8a27 27 0 0 0-1.1-9.1c-.8-2-2.3-2.9-4.7-2.9-2.3 0-4 1-5 2.9s-1.6 5-1.7 9h12.5Zm34-14.9c2 0 3.5.6 4.4 1.8a6 6 0 0 1 1.5 4.1c0 1.5-.4 2.8-1.2 3.6-.8.9-2 1.3-3.4 1.3-1.2 0-2.3-.3-3-1-.7-.6-1-1.5-1-2.7 0-.7 0-1.3.2-1.7l.9-1.2.5-.7c0-.2 0-.4-.2-.5-.1-.2-.4-.2-.7-.2-.8 0-1.8.5-2.8 1.6-1 1-1.9 2.5-2.6 4.3a14 14 0 0 0-1.2 5.8v13.4c0 1 .2 1.8.4 2.2.3.5.8.8 1.6 1 .8.2 2 .3 3.9.3v2.3h-18.5v-2.3c1.4 0 2.4-.1 3-.3a2 2 0 0 0 1.2-1 6 6 0 0 0 .3-2.2V556c0-1.3-.2-2.1-.5-2.6-.2-.4-.8-.7-1.5-.7h-2.1v-2.3l10-1.6h2v6h.2c2-4.3 4.9-6.5 8.6-6.5Zm21.3 34.5a12 12 0 0 1-3.1-.4 34 34 0 0 1-3-.8 7 7 0 0 0-2.6-.7c-.5 0-1 .1-1.3.3a3 3 0 0 0-.8 1h-1.4l-.6-11.5h1.7a15 15 0 0 0 4.2 6.8c2 1.7 4.2 2.5 6.5 2.5 1.7 0 3-.4 4-1.3a5 5 0 0 0 1.3-3.7c0-1-.2-1.8-.6-2.4a5 5 0 0 0-2-1.7c-.8-.5-2.1-1.3-4-2.2l-1.4-.7a24 24 0 0 1-6.8-4.4 8 8 0 0 1-1.8-5.4c0-3.1 1-5.5 3.1-7.2 2-1.7 4.9-2.6 8.4-2.6 2 0 3.7.3 5.5 1l2 .3c.6 0 1 0 1.1-.3l.4-.5.1-.4h1.5l.5 10.3h-1.7c-.6-2.3-1.7-4.1-3.3-5.5a8 8 0 0 0-5.5-2.1 6 6 0 0 0-3.6 1c-1 .8-1.4 1.7-1.4 2.8 0 2.1 1.6 4 4.7 5.4l2.2 1c2.3 1 4 2 5.4 2.8 1.4 1 2.4 2 3.2 3.3a8.6 8.6 0 0 1 1.2 4.7c0 3.2-1.1 5.7-3.3 7.7-2.2 2-5.2 2.9-8.8 2.9Zm24-38.8c-1.4 0-2.4-.5-3.3-1.3-.8-.9-1.2-2-1.2-3.3 0-1.3.4-2.4 1.2-3.3.9-.9 2-1.3 3.3-1.3a4.4 4.4 0 0 1 4.6 4.6c0 1.3-.4 2.4-1.3 3.3-.9.8-2 1.3-3.3 1.3Zm-8.3 35.6c1.4 0 2.4-.1 3-.3a2 2 0 0 0 1.2-1 6 6 0 0 0 .3-2.2V556c0-1.3-.2-2.2-.5-2.6-.2-.4-.7-.7-1.5-.7H442v-2.3l10.3-1.6h2v27.4c0 1 0 1.8.2 2.2.2.5.6.8 1.2 1 .6.2 1.6.3 3 .3v2.3h-17.1v-2.3Zm30.8 3c-2.5 0-4.6-.6-6-2a8.2 8.2 0 0 1-2.2-6.1v-22.7h-4.1v-2.3c2.4-.8 4.4-2 5.8-3.9a21 21 0 0 0 3.4-7.6h3v11h7.5v2.8h-7.5V572c0 2.1.4 3.7 1.2 4.7.8 1 2 1.6 3.7 1.6 1.2 0 2.4-.3 3.5-.7l.8 1.7c-1.8 1.1-3.3 2-4.5 2.5-1.2.6-2.8.9-4.6.9Zm43.3-33.6v2.3c-1.1 0-2 .1-2.5.3-.6.1-1 .5-1.4 1-.4.5-.8 1.3-1.3 2.6l-10.2 25.9-1.1 2.8a58 58 0 0 1-3 7c-.8 1.6-1.9 3-3.2 4a7 7 0 0 1-5 1.7c-1.9 0-3.5-.5-4.8-1.5a4.8 4.8 0 0 1-1.9-3.9 5 5 0 0 1 1.3-3.3 4 4 0 0 1 3-1.4c1.1 0 2 .4 2.6 1a4 4 0 0 1 1 2.7c0 .8-.1 1.5-.5 2l-.6 1.1c0 .4.4.6 1.3.6a4 4 0 0 0 3.2-1.5 17 17 0 0 0 2.5-5.1l1.6-4.3-12-28.8a6 6 0 0 0-1-2c-.3-.4-.7-.6-1.2-.7l-2.6-.2V549h16.8v2.3h-2.3c-1 0-1.4.4-1.4 1.1l.2 1 7 19.3h.1l6.8-19.3.1-.8c0-.9-.4-1.3-1.4-1.3h-2.7V549h12.6Z" fill="#701111"/>
  <path d="M271.5 326.3v.2-119.9h23.3V155H173v51.6h23.4v129.9H173V388v-20s3.5-14 14.5-23.5c0 0-3.5 9.7 3 26.5l.3 1.8c.2 1.4.4 3 .6 3l.4-4.8c1.1-14.4 19.6-68.9 28.7-80-1.5 8.8-22.7 61.2-12.6 80 2.9 5.7 1.8 0 1.8 0 .2-15 7.3-70.5 26.8-94.3-1.5 10.3-19 59-5.4 94.3l.7 1.7c.3 1 1.4 2.3 1.3 3l.5-4.7c1.9-13 7.6-57 7.6-77.1 2.3 4.1 10.6 49.6 8.5 77.1h.2c2-12.3 4.6-52.8 6.7-86.4 1-15.7 2.6-30.1 2.6-39 2.3 3.4 7.7 26.7 6.7 108.6.6-8 2.7-18.5 5.6-27.9Zm0 0c3-9.5 6.6-17.9 10.2-21.5 0 0-3.5 16.2-5.2 31.7m248 51.5v-43.5m0 0v-58.1h-6m6 58.1c-1.2-32-3.6-49-6-58.1m0 0c-2.2-7.8-4-9.7-4-9.7.3 3.2.5 6.5.6 9.7m0 0c1.7 43.8-9.7 88.1-11 88.8l.4-4.2c4.8-33.4-6-52.5-6-52.5 1 31-7.5 45.7-16 52.5-3.2 2.6-5.5 4.8-5.5 4.8-.2 0-.4-1.6-.5-3l-.2-1.8c.5-30.5 7.7-59 11.7-74.7 1.1-4.4 3.5-9.9 3.5-9.9m23.6 0h-23.6m0 0c0-.9 1.5-5.1 1.5-5.4-.3.2-3.7 5-4 5.4m0 0h-5.1L469 335.5l-2 .1m22-49.2c-6.4 8-16 52.6-22 75.6v-26.4m0 0c.1-20.4-5-25.4-5-25.4 1 9.8 1 18.2.3 25.4m0 0h-15.2m15.2 0a103 103 0 0 1-8.5 32l-1.4 3.4c-.9 2.5-1.5 4.8-1.5 4.8-.3 0-.6-1.5-.9-2.9 0-.7-.2-1.4-.3-1.9a113.3 113.3 0 0 1-2.6-35.4m0 0a162 162 0 0 1 2.6-20.1 88 88 0 0 0-8.6 20.1m0 0H423L522 203v-48H317.6v97.2H360l11.8-45.6H418l-84 108.9m107 20.1c-2.4 7-4.6 14.5-6.1 20.4-6-13.5-13.5-15.5-13.5-15.5 3 20.8-4.8 28.1-4.8 28.1 3.6-40.5-4.2-47.6-9-50.6 8.3 16.5-11.7 49.8-11.7 49.8-2-28.9 2.9-51 7.5-72 2.4-11.2 4.8-22 6-33.3-9.6 10-18.9 52.6-22.8 70.5l-1.7 7.5c-.3-1-.7-2.7-1.1-5-2-10-6-31-15.6-41.6 7.2 35.6 1.7 70.1-.2 76.3-2.1-8.7-8.6-56.2-10-60a278 278 0 0 1-21 60.8c-1.3 2.4-2.1 4.8-2.1 4.8-.3 0-.5-1.5-.7-3l-.2-1.8a172.4 172.4 0 0 1 0-55.5m0 0c2.2-17.2 6.3-38.8 6.3-38.8-3.6 2.5-8.8 15.7-11.7 23.8-8.4 24-11.6 57.9-13.1 70.5l-.4 4.8-.2-2.6V371c-1-11.9-1.3-24.4-1.6-34.5-.2-12.2-.1-21-.1-21-2.2 2-4.4 11-6.1 21-2.6 15.7-4.2 34.5-4.6 38.5v.8l.1-4.8c.8-13.1.9-24.6.5-34.5m0 0c-1.5-41.3-10.5-55.9-10.5-55.9.7 14.9-1.4 38.6-3.5 55.9m0 0h-12.5m12.5 0c-2 17.2-4 28-6 34.5-.8 2.5-1.3 4.8-1.3 4.8-.6 0-1.2-1.6-1.7-3l-.6-1.8c-4.4-9.2-4.3-21.2-2.9-34.5" stroke="#701111" stroke-width="8"/>
  <path d="M172.5 388v-51.6h23.4V206.6h-23.4V155h121.8v51.6H271v129.8l47.1.3V388H172.5Z" fill="#701111"/>
  <path d="M318 388v-51.3l99.4-130.1H371l-11.7 45.6H317V155h204.4v48l-99 132.5h45l15.9-49.2h41.1V388H318Z" fill="#701111"/>
  <path d="m318 336.7-47-.3V206.6h23.3V155H172.5v51.6h23.4v129.8h-23.4V388H318m0-51.3V388m0-51.3 99.4-130.1H371l-11.7 45.6H317V155h204.4v48l-99 132.5h45l15.9-49.2h41.1V388H318" stroke="#701111" stroke-width="8"/>
  <path d="M514.5 276.7c4 46.7-9 97.8-10.4 98.5l.4-4.2c4.8-33.4-6-52.5-6-52.5 1 31-7.5 45.7-16 52.5l-6.2 4.8c-.2 0 .2-3.5 0-4.8.7-40.5 13.2-77.5 14.2-85.5-6 5-16.5 48-23 72 2.5-35.5-5.5-47.3-5.5-47.3 3.6 33.6-5.8 51-9.6 60.8-.9 2.5-1.5 4.8-1.5 4.8-.5 0-.9-3.4-1.2-4.8-6.5-24.3 0-55.5 0-55.5-3.2 3.3-11.2 26.5-14.7 40.5-6-13.5-13.5-15.5-13.5-15.5 3 20.8-4.8 28.1-4.8 28.1 3.6-40.5-5.2-47.1-9-50.6 8.8 16.5-11.7 49.8-11.7 49.8-3-44.3 10-72.8 13.5-105.3-11.7 12.3-23 73-24.5 78-1.5-5-5-33.5-16.7-46.6 7.2 35.6 1.7 70.1-.2 76.3-2.1-8.7-10-60-10-60A278 278 0 0 1 337 371c-1.3 2.4-2.1 4.8-2.1 4.8-.4 0-.7-3.4-1-4.8-6-30 6.4-94.3 6.4-94.3-14.2 9.6-22.8 77.4-24.8 94.3l-.4 4.8-.3-4.8c-1.8-26.3-1.6-55.5-1.6-55.5-6 5.7-10.7 60.3-10.7 60.3l.1-4.8c4-68-10-90.4-10-90.4 1.5 29.6-5.5 77.4-9.6 90.4l-1.2 4.8c-1 0-1.7-3.4-2.3-4.8-9.5-20 2.3-66.2 2.3-66.2-7.2 7.2-14.6 33.4-15.8 49.4 1-81.9-6.7-108.6-6.7-108.6-2.2 28.4-6.4 107.3-9.3 125.4-.1 1-.2 1 0 0h-.2c2.1-27.5-8.5-77.1-8.5-77.1 0 21.6-5.7 64.2-7.6 77.1l-.5 4.8c-1-1.6-1.4-3.5-2-4.8-13.7-35.2 5.4-94.3 5.4-94.3-20.9 24.2-26.6 79.4-26.8 94.3 0 1.5 0 1.2 0 0 0 0 1 5.7-1.8 0-10-18.8 10.1-74.5 10.1-74.5-10 15-25 60-26.2 74.5l-.4 4.8c-.3 0-.6-3.5-.9-4.8-6.5-16.8-2.5-27-2.5-27a51.2 51.2 0 0 0-14.5 23.8V389h352c0-87.1-11-112.3-11-112.3Z" fill="#124B43"/>
  <path d="M172.5 389v-52.5h23.4V206.6h-23.4V155h121.8v51.6H271v119.9l.1-.2m0 0c-2.9 9.4-5 20-5.6 27.9 1-81.9-4.4-105.2-6.7-108.6 0 8.9-1.6 23.3-2.6 39a1572 1572 0 0 1-6.7 86.4h-.2c2.1-27.5-6.2-73-8.5-77.1 0 20.1-5.7 64.2-7.6 77.1l-.5 4.8c-.6-1-1-2-1.3-3l-.7-1.8c-13.7-35.2 3.9-84 5.4-94.3-19.5 23.8-26.6 79.4-26.8 94.3 0 0 1 5.7-1.8 0-10-18.8 11.1-71.2 12.6-80-9.1 11.1-27.6 65.6-28.7 80l-.4 4.8c-.2 0-.4-1.6-.6-3l-.3-1.8c-6.5-16.8-3-26.5-3-26.5-11 9.5-14.5 24-14.5 24m98.5-42.2c3-9.5 6.6-17.9 10.2-21.5 0 0-3.5 16.2-5.2 31.7M524.5 389v-44.3m0 0v-58.3h-6.6m6.6 58.3c-1.2-32-4.1-49.2-6.6-58.3m0 0c-2.1-7.8-3.9-9.7-3.9-9.7.3 3.2.5 6.5.6 9.7m0 0c1.7 43.8-9.7 88.1-11 88.8l.4-4.2c4.8-33.4-6-52.5-6-52.5 1 31-7.5 45.7-16 52.5-3.2 2.6-5.5 4.8-5.5 4.8-.2 0-.4-1.6-.5-3l-.2-1.8c.5-30.5 7.7-59 11.7-74.7 1.1-4.4 3.5-9.9 3.5-9.9m23.6 0H491m0 0c0-.9 1.5-5.1 1.5-5.4-.3.2-3.7 5-4 5.4m0 0h-5.1l-14.9 49.1-2 .1m22-49.2c-6.4 8-16 52.6-22 75.6v-26.4m0 0c.1-20.4-5-25.4-5-25.4 1 9.8 1 18.2.3 25.4m0 0h-15.2m15.2 0a103 103 0 0 1-8.5 32L452 371c-.9 2.5-1.5 4.8-1.5 4.8-.3 0-.6-1.5-.9-2.9 0-.7-.2-1.4-.3-1.9a113.3 113.3 0 0 1-2.6-35.4m0 0a162 162 0 0 1 2.6-20.1 88 88 0 0 0-8.6 20.1m0 0h-18.1l99-132.6v-48H317.1v97.2h42.3l11.8-45.6h46.2l-84 108.9m107.2 20.1c-2.4 7-4.6 14.5-6.1 20.4-6-13.5-13.5-15.5-13.5-15.5 3 20.8-4.8 28.1-4.8 28.1 3.6-40.5-4.2-47.6-9-50.6 8.3 16.5-11.7 49.8-11.7 49.8-2-28.9 2.9-51 7.5-72 2.4-11.2 4.8-22 6-33.3-9.6 10-18.9 52.6-22.8 70.5l-1.7 7.5c-.3-1-.7-2.7-1.1-5-2-10-6-31-15.6-41.6 7.2 35.6 1.7 70.1-.2 76.3-2.1-8.7-8.6-56.2-10-60a278 278 0 0 1-21.2 60.8c-1.3 2.4-2.1 4.8-2.1 4.8-.3 0-.5-1.5-.7-3l-.2-1.8a172.4 172.4 0 0 1 0-55.5m0 0c2.2-17.2 6.3-38.8 6.3-38.8-3.6 2.5-8.8 15.7-11.7 23.8-8.4 24-11.6 57.9-13.1 70.5l-.4 4.8-.2-2.6V371c-1-11.9-1.3-24.4-1.6-34.5-.2-12.2-.1-21-.1-21-2.2 2-4.4 11-6.1 21-2.6 15.7-4.2 34.5-4.6 38.5v.8l.1-4.8c.8-13.1.9-24.6.5-34.5m0 0c-1.5-41.3-10.5-55.9-10.5-55.9.7 14.9-1.4 38.6-3.5 55.9m0 0H276m12.5 0c-2 17.2-4 28-6 34.5-.8 2.5-1.3 4.8-1.3 4.8-.6 0-1.2-1.6-1.7-3l-.6-1.8c-4.4-9.2-4.3-21.2-2.9-34.5" stroke="#fff" stroke-width="2"/>
  <path fill="#fff" d="M172.5 387h351v2h-351z"/>
</svg>